{
	"patcher" : 	{
		"fileversion" : 1,
		"rect" : [ 33.0, 142.0, 967.0, 777.0 ],
		"bglocked" : 0,
		"defrect" : [ 33.0, 142.0, 967.0, 777.0 ],
		"openrect" : [ 0.0, 0.0, 0.0, 0.0 ],
		"openinpresentation" : 0,
		"default_fontsize" : 12.0,
		"default_fontface" : 0,
		"default_fontname" : "Arial",
		"gridonopen" : 0,
		"gridsize" : [ 15.0, 15.0 ],
		"gridsnaponopen" : 0,
		"toolbarvisible" : 1,
		"boxanimatetime" : 200,
		"imprint" : 0,
		"enablehscroll" : 1,
		"enablevscroll" : 1,
		"devicewidth" : 0.0,
		"boxes" : [ 			{
				"box" : 				{
					"maxclass" : "message",
					"text" : "open /Users/mobi/Desktop/MoBI_DEMOS/MAZE_LSL/soundfiles/sound2.wav",
					"linecount" : 4,
					"patching_rect" : [ 13.0, 665.0, 201.0, 60.0 ],
					"id" : "obj-42",
					"fontname" : "Arial",
					"numinlets" : 2,
					"numoutlets" : 1,
					"fontsize" : 12.0,
					"outlettype" : [ "" ]
				}

			}
, 			{
				"box" : 				{
					"maxclass" : "meter~",
					"patching_rect" : [ 93.0, 640.0, 80.0, 13.0 ],
					"id" : "obj-39",
					"numinlets" : 1,
					"numoutlets" : 1,
					"outlettype" : [ "float" ]
				}

			}
, 			{
				"box" : 				{
					"maxclass" : "message",
					"patching_rect" : [ 252.0, 348.0, 50.0, 18.0 ],
					"id" : "obj-17",
					"fontname" : "Arial",
					"numinlets" : 2,
					"numoutlets" : 1,
					"fontsize" : 12.0,
					"outlettype" : [ "" ]
				}

			}
, 			{
				"box" : 				{
					"maxclass" : "message",
					"text" : "off",
					"patching_rect" : [ 370.0, 248.0, 50.0, 18.0 ],
					"id" : "obj-31",
					"fontname" : "Arial",
					"numinlets" : 2,
					"numoutlets" : 1,
					"fontsize" : 12.0,
					"outlettype" : [ "" ]
				}

			}
, 			{
				"box" : 				{
					"maxclass" : "newobj",
					"text" : "t b i",
					"patching_rect" : [ 43.0, 132.0, 32.5, 20.0 ],
					"id" : "obj-49",
					"fontname" : "Arial",
					"numinlets" : 1,
					"numoutlets" : 2,
					"fontsize" : 12.0,
					"outlettype" : [ "bang", "int" ]
				}

			}
, 			{
				"box" : 				{
					"maxclass" : "message",
					"text" : "0 0 0 0 off",
					"patching_rect" : [ 85.0, 160.0, 134.0, 18.0 ],
					"id" : "obj-46",
					"fontname" : "Arial",
					"numinlets" : 2,
					"numoutlets" : 1,
					"fontsize" : 12.0,
					"outlettype" : [ "" ]
				}

			}
, 			{
				"box" : 				{
					"maxclass" : "newobj",
					"text" : "prepend set",
					"patching_rect" : [ 85.0, 132.0, 74.0, 20.0 ],
					"id" : "obj-43",
					"fontname" : "Arial",
					"numinlets" : 1,
					"numoutlets" : 1,
					"fontsize" : 12.0,
					"outlettype" : [ "" ]
				}

			}
, 			{
				"box" : 				{
					"maxclass" : "toggle",
					"patching_rect" : [ 38.0, 172.0, 20.0, 20.0 ],
					"id" : "obj-44",
					"numinlets" : 1,
					"numoutlets" : 1,
					"outlettype" : [ "int" ]
				}

			}
, 			{
				"box" : 				{
					"maxclass" : "comment",
					"text" : "EVENT()",
					"patching_rect" : [ 373.0, 269.0, 59.0, 20.0 ],
					"id" : "obj-33",
					"fontname" : "Arial",
					"numinlets" : 1,
					"numoutlets" : 0,
					"fontsize" : 12.0
				}

			}
, 			{
				"box" : 				{
					"maxclass" : "newobj",
					"text" : "zl rev",
					"patching_rect" : [ 147.0, 36.0, 39.0, 20.0 ],
					"id" : "obj-30",
					"fontname" : "Arial",
					"numinlets" : 2,
					"numoutlets" : 2,
					"fontsize" : 12.0,
					"outlettype" : [ "", "" ]
				}

			}
, 			{
				"box" : 				{
					"maxclass" : "newobj",
					"text" : "in 1",
					"patching_rect" : [ 372.0, 24.0, 30.0, 20.0 ],
					"id" : "obj-24",
					"fontname" : "Arial",
					"numinlets" : 1,
					"numoutlets" : 1,
					"fontsize" : 12.0,
					"outlettype" : [ "" ],
					"saved_object_attributes" : 					{

					}

				}

			}
, 			{
				"box" : 				{
					"maxclass" : "newobj",
					"text" : "t b",
					"patching_rect" : [ 253.0, 321.0, 24.0, 20.0 ],
					"id" : "obj-19",
					"fontname" : "Arial",
					"numinlets" : 1,
					"numoutlets" : 1,
					"fontsize" : 12.0,
					"outlettype" : [ "bang" ]
				}

			}
, 			{
				"box" : 				{
					"maxclass" : "newobj",
					"text" : "s Event_Code",
					"patching_rect" : [ 253.0, 375.0, 86.0, 20.0 ],
					"id" : "obj-12",
					"fontname" : "Arial",
					"numinlets" : 1,
					"numoutlets" : 0,
					"fontsize" : 12.0
				}

			}
, 			{
				"box" : 				{
					"maxclass" : "button",
					"patching_rect" : [ 269.0, 180.0, 20.0, 20.0 ],
					"id" : "obj-8",
					"numinlets" : 1,
					"numoutlets" : 1,
					"outlettype" : [ "bang" ]
				}

			}
, 			{
				"box" : 				{
					"maxclass" : "newobj",
					"text" : "zl change",
					"patching_rect" : [ 202.0, 176.0, 62.0, 20.0 ],
					"id" : "obj-5",
					"fontname" : "Arial",
					"numinlets" : 2,
					"numoutlets" : 2,
					"fontsize" : 12.0,
					"outlettype" : [ "", "" ]
				}

			}
, 			{
				"box" : 				{
					"maxclass" : "newobj",
					"text" : "out~ 12",
					"patching_rect" : [ 736.0, 738.0, 51.0, 20.0 ],
					"id" : "obj-81",
					"fontname" : "Arial",
					"numinlets" : 1,
					"numoutlets" : 0,
					"fontsize" : 12.0,
					"saved_object_attributes" : 					{

					}

				}

			}
, 			{
				"box" : 				{
					"maxclass" : "newobj",
					"text" : "out~ 11",
					"patching_rect" : [ 689.0, 738.0, 51.0, 20.0 ],
					"id" : "obj-82",
					"fontname" : "Arial",
					"numinlets" : 1,
					"numoutlets" : 0,
					"fontsize" : 12.0,
					"saved_object_attributes" : 					{

					}

				}

			}
, 			{
				"box" : 				{
					"maxclass" : "newobj",
					"text" : "out~ 10",
					"patching_rect" : [ 642.0, 738.0, 51.0, 20.0 ],
					"id" : "obj-83",
					"fontname" : "Arial",
					"numinlets" : 1,
					"numoutlets" : 0,
					"fontsize" : 12.0,
					"saved_object_attributes" : 					{

					}

				}

			}
, 			{
				"box" : 				{
					"maxclass" : "newobj",
					"text" : "out~ 9",
					"patching_rect" : [ 595.0, 738.0, 44.0, 20.0 ],
					"id" : "obj-84",
					"fontname" : "Arial",
					"numinlets" : 1,
					"numoutlets" : 0,
					"fontsize" : 12.0,
					"saved_object_attributes" : 					{

					}

				}

			}
, 			{
				"box" : 				{
					"maxclass" : "newobj",
					"text" : "out~ 8",
					"patching_rect" : [ 549.0, 738.0, 44.0, 20.0 ],
					"id" : "obj-76",
					"fontname" : "Arial",
					"numinlets" : 1,
					"numoutlets" : 0,
					"fontsize" : 12.0,
					"saved_object_attributes" : 					{

					}

				}

			}
, 			{
				"box" : 				{
					"maxclass" : "newobj",
					"text" : "out~ 7",
					"patching_rect" : [ 502.0, 738.0, 44.0, 20.0 ],
					"id" : "obj-77",
					"fontname" : "Arial",
					"numinlets" : 1,
					"numoutlets" : 0,
					"fontsize" : 12.0,
					"saved_object_attributes" : 					{

					}

				}

			}
, 			{
				"box" : 				{
					"maxclass" : "newobj",
					"text" : "out~ 6",
					"patching_rect" : [ 455.0, 738.0, 44.0, 20.0 ],
					"id" : "obj-78",
					"fontname" : "Arial",
					"numinlets" : 1,
					"numoutlets" : 0,
					"fontsize" : 12.0,
					"saved_object_attributes" : 					{

					}

				}

			}
, 			{
				"box" : 				{
					"maxclass" : "newobj",
					"text" : "out~ 5",
					"patching_rect" : [ 408.0, 738.0, 44.0, 20.0 ],
					"id" : "obj-80",
					"fontname" : "Arial",
					"numinlets" : 1,
					"numoutlets" : 0,
					"fontsize" : 12.0,
					"saved_object_attributes" : 					{

					}

				}

			}
, 			{
				"box" : 				{
					"maxclass" : "newobj",
					"text" : "out~ 4",
					"patching_rect" : [ 362.0, 738.0, 44.0, 20.0 ],
					"id" : "obj-74",
					"fontname" : "Arial",
					"numinlets" : 1,
					"numoutlets" : 0,
					"fontsize" : 12.0,
					"saved_object_attributes" : 					{

					}

				}

			}
, 			{
				"box" : 				{
					"maxclass" : "newobj",
					"text" : "out~ 3",
					"patching_rect" : [ 315.0, 738.0, 44.0, 20.0 ],
					"id" : "obj-73",
					"fontname" : "Arial",
					"numinlets" : 1,
					"numoutlets" : 0,
					"fontsize" : 12.0,
					"saved_object_attributes" : 					{

					}

				}

			}
, 			{
				"box" : 				{
					"maxclass" : "newobj",
					"text" : "out~ 2",
					"patching_rect" : [ 268.0, 738.0, 44.0, 20.0 ],
					"id" : "obj-72",
					"fontname" : "Arial",
					"numinlets" : 1,
					"numoutlets" : 0,
					"fontsize" : 12.0,
					"saved_object_attributes" : 					{

					}

				}

			}
, 			{
				"box" : 				{
					"maxclass" : "newobj",
					"text" : "out~ 1",
					"patching_rect" : [ 221.0, 738.0, 44.0, 20.0 ],
					"id" : "obj-70",
					"fontname" : "Arial",
					"numinlets" : 1,
					"numoutlets" : 0,
					"fontsize" : 12.0,
					"saved_object_attributes" : 					{

					}

				}

			}
, 			{
				"box" : 				{
					"maxclass" : "newobj",
					"text" : "gate",
					"patching_rect" : [ 70.0, 188.0, 34.0, 20.0 ],
					"id" : "obj-67",
					"fontname" : "Arial",
					"numinlets" : 2,
					"numoutlets" : 1,
					"fontsize" : 12.0,
					"outlettype" : [ "" ]
				}

			}
, 			{
				"box" : 				{
					"maxclass" : "newobj",
					"text" : "zl slice 1",
					"patching_rect" : [ 37.0, 78.0, 57.0, 20.0 ],
					"id" : "obj-66",
					"fontname" : "Arial",
					"numinlets" : 2,
					"numoutlets" : 2,
					"fontsize" : 12.0,
					"outlettype" : [ "", "" ]
				}

			}
, 			{
				"box" : 				{
					"maxclass" : "newobj",
					"text" : "==",
					"patching_rect" : [ 54.0, 107.0, 32.5, 20.0 ],
					"id" : "obj-64",
					"fontname" : "Arial",
					"numinlets" : 2,
					"numoutlets" : 1,
					"fontsize" : 12.0,
					"outlettype" : [ "int" ]
				}

			}
, 			{
				"box" : 				{
					"maxclass" : "newobj",
					"text" : "loadbang",
					"patching_rect" : [ 293.0, 20.0, 48.0, 17.0 ],
					"id" : "obj-50",
					"fontname" : "Arial",
					"numinlets" : 1,
					"numoutlets" : 1,
					"fontsize" : 9.0,
					"outlettype" : [ "bang" ]
				}

			}
, 			{
				"box" : 				{
					"maxclass" : "newobj",
					"text" : "thispoly~",
					"patching_rect" : [ 293.0, 40.0, 52.0, 17.0 ],
					"id" : "obj-52",
					"fontname" : "Arial",
					"numinlets" : 1,
					"numoutlets" : 2,
					"fontsize" : 9.0,
					"outlettype" : [ "int", "int" ]
				}

			}
, 			{
				"box" : 				{
					"maxclass" : "button",
					"patching_rect" : [ 146.0, 466.0, 20.0, 20.0 ],
					"id" : "obj-32",
					"numinlets" : 1,
					"numoutlets" : 1,
					"outlettype" : [ "bang" ]
				}

			}
, 			{
				"box" : 				{
					"maxclass" : "button",
					"patching_rect" : [ 91.0, 45.0, 20.0, 20.0 ],
					"id" : "obj-22",
					"numinlets" : 1,
					"numoutlets" : 1,
					"outlettype" : [ "bang" ]
				}

			}
, 			{
				"box" : 				{
					"maxclass" : "newobj",
					"text" : "unpack 0 0 0 0 s",
					"patching_rect" : [ 95.0, 218.0, 293.0, 20.0 ],
					"id" : "obj-4",
					"fontname" : "Arial",
					"numinlets" : 1,
					"numoutlets" : 5,
					"fontsize" : 12.0,
					"outlettype" : [ "int", "int", "int", "int", "" ]
				}

			}
, 			{
				"box" : 				{
					"maxclass" : "newobj",
					"text" : "r fileplay",
					"patching_rect" : [ 27.0, 17.0, 63.0, 20.0 ],
					"id" : "obj-1",
					"fontname" : "Arial",
					"numinlets" : 0,
					"numoutlets" : 1,
					"fontsize" : 12.0,
					"outlettype" : [ "" ]
				}

			}
, 			{
				"box" : 				{
					"maxclass" : "comment",
					"text" : "3",
					"patching_rect" : [ 82.0, 457.0, 28.0, 34.0 ],
					"frgb" : [ 0.317647, 0.709804, 0.321569, 1.0 ],
					"id" : "obj-41",
					"textcolor" : [ 0.317647, 0.709804, 0.321569, 1.0 ],
					"fontname" : "Arial",
					"numinlets" : 1,
					"numoutlets" : 0,
					"fontface" : 1,
					"fontsize" : 24.0
				}

			}
, 			{
				"box" : 				{
					"maxclass" : "comment",
					"text" : "2",
					"patching_rect" : [ 64.0, 294.0, 28.0, 34.0 ],
					"frgb" : [ 0.317647, 0.709804, 0.321569, 1.0 ],
					"id" : "obj-38",
					"textcolor" : [ 0.317647, 0.709804, 0.321569, 1.0 ],
					"fontname" : "Arial",
					"numinlets" : 1,
					"numoutlets" : 0,
					"fontface" : 1,
					"fontsize" : 24.0
				}

			}
, 			{
				"box" : 				{
					"maxclass" : "number",
					"patching_rect" : [ 302.0, 248.0, 50.0, 20.0 ],
					"id" : "obj-61",
					"fontname" : "Arial",
					"numinlets" : 1,
					"numoutlets" : 2,
					"fontsize" : 12.0,
					"outlettype" : [ "int", "bang" ]
				}

			}
, 			{
				"box" : 				{
					"maxclass" : "comment",
					"text" : "VOL()",
					"patching_rect" : [ 301.0, 269.0, 44.0, 20.0 ],
					"id" : "obj-62",
					"fontname" : "Arial",
					"numinlets" : 1,
					"numoutlets" : 0,
					"fontsize" : 12.0
				}

			}
, 			{
				"box" : 				{
					"maxclass" : "newobj",
					"text" : "- 79.45",
					"patching_rect" : [ 432.0, 354.0, 100.0, 20.0 ],
					"id" : "obj-14",
					"fontname" : "Arial",
					"numinlets" : 2,
					"numoutlets" : 1,
					"fontsize" : 12.0,
					"outlettype" : [ "float" ]
				}

			}
, 			{
				"box" : 				{
					"maxclass" : "newobj",
					"text" : "* 0.6207",
					"patching_rect" : [ 471.0, 328.0, 100.0, 20.0 ],
					"id" : "obj-13",
					"fontname" : "Arial",
					"numinlets" : 2,
					"numoutlets" : 1,
					"fontsize" : 12.0,
					"outlettype" : [ "float" ]
				}

			}
, 			{
				"box" : 				{
					"maxclass" : "flonum",
					"patching_rect" : [ 432.0, 379.0, 50.0, 20.0 ],
					"id" : "obj-10",
					"fontname" : "Arial",
					"numinlets" : 1,
					"numoutlets" : 2,
					"fontsize" : 12.0,
					"outlettype" : [ "float", "bang" ]
				}

			}
, 			{
				"box" : 				{
					"maxclass" : "newobj",
					"text" : "dbtoa",
					"patching_rect" : [ 432.0, 404.0, 100.0, 20.0 ],
					"id" : "obj-3",
					"fontname" : "Arial",
					"numinlets" : 1,
					"numoutlets" : 1,
					"fontsize" : 12.0,
					"outlettype" : [ "" ]
				}

			}
, 			{
				"box" : 				{
					"maxclass" : "number",
					"patching_rect" : [ 233.0, 248.0, 50.0, 20.0 ],
					"id" : "obj-40",
					"fontname" : "Arial",
					"numinlets" : 1,
					"numoutlets" : 2,
					"fontsize" : 12.0,
					"outlettype" : [ "int", "bang" ]
				}

			}
, 			{
				"box" : 				{
					"maxclass" : "gain~",
					"patching_rect" : [ 301.0, 307.0, 150.0, 19.0 ],
					"id" : "obj-37",
					"numinlets" : 2,
					"numoutlets" : 2,
					"outlettype" : [ "signal", "int" ]
				}

			}
, 			{
				"box" : 				{
					"maxclass" : "comment",
					"text" : "AZI()",
					"patching_rect" : [ 239.0, 269.0, 44.0, 20.0 ],
					"id" : "obj-36",
					"fontname" : "Arial",
					"numinlets" : 1,
					"numoutlets" : 0,
					"fontsize" : 12.0
				}

			}
, 			{
				"box" : 				{
					"maxclass" : "newobj",
					"text" : "loadbang",
					"patching_rect" : [ 175.0, 408.0, 60.0, 20.0 ],
					"id" : "obj-35",
					"fontname" : "Arial",
					"numinlets" : 1,
					"numoutlets" : 1,
					"fontsize" : 12.0,
					"outlettype" : [ "bang" ]
				}

			}
, 			{
				"box" : 				{
					"maxclass" : "comment",
					"text" : "gain factor",
					"patching_rect" : [ 526.0, 446.0, 67.0, 20.0 ],
					"id" : "obj-34",
					"fontname" : "Arial",
					"numinlets" : 1,
					"numoutlets" : 0,
					"fontsize" : 12.0
				}

			}
, 			{
				"box" : 				{
					"maxclass" : "button",
					"patching_rect" : [ 175.0, 433.0, 20.0, 20.0 ],
					"id" : "obj-110",
					"numinlets" : 1,
					"numoutlets" : 1,
					"outlettype" : [ "bang" ]
				}

			}
, 			{
				"box" : 				{
					"maxclass" : "newobj",
					"text" : "define_loudspeakers 2 -30 0 30 60 90 120 150 180 -150 -120 -90 -60",
					"linecount" : 4,
					"patching_rect" : [ 175.0, 459.0, 123.0, 62.0 ],
					"id" : "obj-23",
					"fontname" : "Arial",
					"numinlets" : 1,
					"numoutlets" : 1,
					"fontsize" : 12.0,
					"outlettype" : [ "" ]
				}

			}
, 			{
				"box" : 				{
					"maxclass" : "newobj",
					"text" : "t b i",
					"patching_rect" : [ 320.0, 498.0, 27.0, 17.0 ],
					"id" : "obj-75",
					"fontname" : "Arial",
					"numinlets" : 1,
					"numoutlets" : 2,
					"fontsize" : 9.0,
					"outlettype" : [ "bang", "int" ]
				}

			}
, 			{
				"box" : 				{
					"maxclass" : "newobj",
					"text" : "t b i",
					"patching_rect" : [ 375.0, 498.0, 27.0, 17.0 ],
					"id" : "obj-27",
					"fontname" : "Arial",
					"numinlets" : 1,
					"numoutlets" : 2,
					"fontsize" : 9.0,
					"outlettype" : [ "bang", "int" ]
				}

			}
, 			{
				"box" : 				{
					"maxclass" : "newobj",
					"text" : "t b i",
					"patching_rect" : [ 424.0, 502.0, 27.0, 17.0 ],
					"id" : "obj-79",
					"fontname" : "Arial",
					"numinlets" : 1,
					"numoutlets" : 2,
					"fontsize" : 9.0,
					"outlettype" : [ "bang", "int" ]
				}

			}
, 			{
				"box" : 				{
					"maxclass" : "slider",
					"patching_rect" : [ 423.0, 477.0, 76.0, 20.0 ],
					"id" : "obj-28",
					"numinlets" : 1,
					"orientation" : 1,
					"numoutlets" : 1,
					"size" : 101.0,
					"outlettype" : [ "" ]
				}

			}
, 			{
				"box" : 				{
					"maxclass" : "comment",
					"text" : "ele",
					"patching_rect" : [ 377.0, 460.0, 35.0, 20.0 ],
					"id" : "obj-86",
					"fontname" : "Arial",
					"numinlets" : 1,
					"numoutlets" : 0,
					"fontsize" : 12.0
				}

			}
, 			{
				"box" : 				{
					"maxclass" : "number",
					"patching_rect" : [ 374.0, 477.0, 40.0, 20.0 ],
					"triscale" : 0.9,
					"id" : "obj-87",
					"fontname" : "Arial",
					"numinlets" : 1,
					"numoutlets" : 2,
					"htextcolor" : [ 0.870588, 0.870588, 0.870588, 1.0 ],
					"fontsize" : 12.0,
					"outlettype" : [ "int", "bang" ],
					"bgcolor" : [ 0.866667, 0.866667, 0.866667, 1.0 ]
				}

			}
, 			{
				"box" : 				{
					"maxclass" : "number",
					"patching_rect" : [ 319.0, 477.0, 42.0, 20.0 ],
					"triscale" : 0.9,
					"id" : "obj-88",
					"fontname" : "Arial",
					"numinlets" : 1,
					"numoutlets" : 2,
					"htextcolor" : [ 0.870588, 0.870588, 0.870588, 1.0 ],
					"fontsize" : 12.0,
					"outlettype" : [ "int", "bang" ],
					"bgcolor" : [ 0.866667, 0.866667, 0.866667, 1.0 ]
				}

			}
, 			{
				"box" : 				{
					"maxclass" : "comment",
					"text" : "Panning direction",
					"patching_rect" : [ 320.0, 439.0, 108.0, 20.0 ],
					"id" : "obj-89",
					"fontname" : "Arial",
					"numinlets" : 1,
					"numoutlets" : 0,
					"fontsize" : 12.0
				}

			}
, 			{
				"box" : 				{
					"maxclass" : "comment",
					"text" : "azi",
					"patching_rect" : [ 325.0, 460.0, 32.0, 20.0 ],
					"id" : "obj-90",
					"fontname" : "Arial",
					"numinlets" : 1,
					"numoutlets" : 0,
					"fontsize" : 12.0
				}

			}
, 			{
				"box" : 				{
					"maxclass" : "comment",
					"text" : "spreading of the virtual source",
					"linecount" : 2,
					"patching_rect" : [ 422.0, 439.0, 98.0, 34.0 ],
					"id" : "obj-92",
					"fontname" : "Arial",
					"numinlets" : 1,
					"numoutlets" : 0,
					"fontsize" : 12.0
				}

			}
, 			{
				"box" : 				{
					"maxclass" : "number",
					"patching_rect" : [ 496.0, 590.0, 50.0, 20.0 ],
					"id" : "obj-71",
					"fontname" : "Arial",
					"numinlets" : 1,
					"numoutlets" : 2,
					"fontsize" : 12.0,
					"outlettype" : [ "int", "bang" ]
				}

			}
, 			{
				"box" : 				{
					"maxclass" : "number",
					"patching_rect" : [ 443.0, 590.0, 50.0, 20.0 ],
					"id" : "obj-65",
					"fontname" : "Arial",
					"numinlets" : 1,
					"numoutlets" : 2,
					"fontsize" : 12.0,
					"outlettype" : [ "int", "bang" ]
				}

			}
, 			{
				"box" : 				{
					"maxclass" : "number",
					"patching_rect" : [ 389.0, 589.0, 50.0, 20.0 ],
					"id" : "obj-59",
					"fontname" : "Arial",
					"numinlets" : 1,
					"numoutlets" : 2,
					"fontsize" : 12.0,
					"outlettype" : [ "int", "bang" ]
				}

			}
, 			{
				"box" : 				{
					"maxclass" : "newobj",
					"text" : "p ls-delayss",
					"patching_rect" : [ 375.0, 663.0, 201.0, 17.0 ],
					"id" : "obj-54",
					"fontname" : "Arial",
					"numinlets" : 12,
					"numoutlets" : 12,
					"fontsize" : 9.0,
					"outlettype" : [ "signal", "signal", "signal", "signal", "signal", "signal", "signal", "signal", "signal", "signal", "signal", "signal" ],
					"patcher" : 					{
						"fileversion" : 1,
						"rect" : [ 10.0, 59.0, 989.0, 527.0 ],
						"bglocked" : 0,
						"defrect" : [ 10.0, 59.0, 989.0, 527.0 ],
						"openrect" : [ 0.0, 0.0, 0.0, 0.0 ],
						"openinpresentation" : 0,
						"default_fontsize" : 12.0,
						"default_fontface" : 0,
						"default_fontname" : "Arial",
						"gridonopen" : 0,
						"gridsize" : [ 15.0, 15.0 ],
						"gridsnaponopen" : 0,
						"toolbarvisible" : 1,
						"boxanimatetime" : 200,
						"imprint" : 0,
						"enablehscroll" : 1,
						"enablevscroll" : 1,
						"devicewidth" : 0.0,
						"boxes" : [ 							{
								"box" : 								{
									"maxclass" : "newobj",
									"text" : "delay~ 0 0",
									"patching_rect" : [ 747.0, 175.0, 55.0, 17.0 ],
									"id" : "obj-31",
									"fontname" : "Arial",
									"numinlets" : 2,
									"numoutlets" : 1,
									"fontsize" : 9.0,
									"outlettype" : [ "signal" ]
								}

							}
, 							{
								"box" : 								{
									"maxclass" : "newobj",
									"text" : "delay~ 0 0",
									"patching_rect" : [ 819.0, 204.0, 55.0, 17.0 ],
									"id" : "obj-32",
									"fontname" : "Arial",
									"numinlets" : 2,
									"numoutlets" : 1,
									"fontsize" : 9.0,
									"outlettype" : [ "signal" ]
								}

							}
, 							{
								"box" : 								{
									"maxclass" : "outlet",
									"patching_rect" : [ 832.0, 253.0, 15.0, 15.0 ],
									"id" : "obj-33",
									"numinlets" : 1,
									"numoutlets" : 0,
									"comment" : ""
								}

							}
, 							{
								"box" : 								{
									"maxclass" : "outlet",
									"patching_rect" : [ 746.0, 251.0, 15.0, 15.0 ],
									"id" : "obj-34",
									"numinlets" : 1,
									"numoutlets" : 0,
									"comment" : ""
								}

							}
, 							{
								"box" : 								{
									"maxclass" : "inlet",
									"patching_rect" : [ 826.0, 65.0, 15.0, 15.0 ],
									"id" : "obj-35",
									"numinlets" : 0,
									"numoutlets" : 1,
									"outlettype" : [ "signal" ],
									"comment" : ""
								}

							}
, 							{
								"box" : 								{
									"maxclass" : "inlet",
									"patching_rect" : [ 751.0, 76.0, 15.0, 15.0 ],
									"id" : "obj-36",
									"numinlets" : 0,
									"numoutlets" : 1,
									"outlettype" : [ "signal" ],
									"comment" : ""
								}

							}
, 							{
								"box" : 								{
									"maxclass" : "newobj",
									"text" : "delay~ 0 0",
									"patching_rect" : [ 118.0, 147.0, 55.0, 17.0 ],
									"id" : "obj-1",
									"fontname" : "Arial",
									"numinlets" : 2,
									"numoutlets" : 1,
									"fontsize" : 9.0,
									"outlettype" : [ "signal" ]
								}

							}
, 							{
								"box" : 								{
									"maxclass" : "newobj",
									"text" : "delay~ 0 0",
									"patching_rect" : [ 199.0, 143.0, 55.0, 17.0 ],
									"id" : "obj-2",
									"fontname" : "Arial",
									"numinlets" : 2,
									"numoutlets" : 1,
									"fontsize" : 9.0,
									"outlettype" : [ "signal" ]
								}

							}
, 							{
								"box" : 								{
									"maxclass" : "newobj",
									"text" : "delay~ 0 0",
									"patching_rect" : [ 276.0, 117.0, 55.0, 17.0 ],
									"id" : "obj-3",
									"fontname" : "Arial",
									"numinlets" : 2,
									"numoutlets" : 1,
									"fontsize" : 9.0,
									"outlettype" : [ "signal" ]
								}

							}
, 							{
								"box" : 								{
									"maxclass" : "newobj",
									"text" : "delay~ 0 0",
									"patching_rect" : [ 342.0, 146.0, 55.0, 17.0 ],
									"id" : "obj-4",
									"fontname" : "Arial",
									"numinlets" : 2,
									"numoutlets" : 1,
									"fontsize" : 9.0,
									"outlettype" : [ "signal" ]
								}

							}
, 							{
								"box" : 								{
									"maxclass" : "newobj",
									"text" : "delay~ 0 0",
									"patching_rect" : [ 408.0, 178.0, 55.0, 17.0 ],
									"id" : "obj-5",
									"fontname" : "Arial",
									"numinlets" : 2,
									"numoutlets" : 1,
									"fontsize" : 9.0,
									"outlettype" : [ "signal" ]
								}

							}
, 							{
								"box" : 								{
									"maxclass" : "newobj",
									"text" : "delay~ 0 0",
									"patching_rect" : [ 465.0, 109.0, 55.0, 17.0 ],
									"id" : "obj-6",
									"fontname" : "Arial",
									"numinlets" : 2,
									"numoutlets" : 1,
									"fontsize" : 9.0,
									"outlettype" : [ "signal" ]
								}

							}
, 							{
								"box" : 								{
									"maxclass" : "newobj",
									"text" : "delay~ 0 0",
									"patching_rect" : [ 526.0, 140.0, 55.0, 17.0 ],
									"id" : "obj-7",
									"fontname" : "Arial",
									"numinlets" : 2,
									"numoutlets" : 1,
									"fontsize" : 9.0,
									"outlettype" : [ "signal" ]
								}

							}
, 							{
								"box" : 								{
									"maxclass" : "newobj",
									"text" : "delay~ 0 0",
									"patching_rect" : [ 588.0, 169.0, 55.0, 17.0 ],
									"id" : "obj-8",
									"fontname" : "Arial",
									"numinlets" : 2,
									"numoutlets" : 1,
									"fontsize" : 9.0,
									"outlettype" : [ "signal" ]
								}

							}
, 							{
								"box" : 								{
									"maxclass" : "newobj",
									"text" : "delay~ 0 0",
									"patching_rect" : [ 660.0, 198.0, 55.0, 17.0 ],
									"id" : "obj-9",
									"fontname" : "Arial",
									"numinlets" : 2,
									"numoutlets" : 1,
									"fontsize" : 9.0,
									"outlettype" : [ "signal" ]
								}

							}
, 							{
								"box" : 								{
									"maxclass" : "newobj",
									"text" : "delay~ 0 0",
									"patching_rect" : [ 32.0, 161.0, 55.0, 17.0 ],
									"id" : "obj-10",
									"fontname" : "Arial",
									"numinlets" : 2,
									"numoutlets" : 1,
									"fontsize" : 9.0,
									"outlettype" : [ "signal" ]
								}

							}
, 							{
								"box" : 								{
									"maxclass" : "outlet",
									"patching_rect" : [ 127.0, 251.0, 15.0, 15.0 ],
									"id" : "obj-11",
									"numinlets" : 1,
									"numoutlets" : 0,
									"comment" : ""
								}

							}
, 							{
								"box" : 								{
									"maxclass" : "outlet",
									"patching_rect" : [ 212.0, 244.0, 15.0, 15.0 ],
									"id" : "obj-12",
									"numinlets" : 1,
									"numoutlets" : 0,
									"comment" : ""
								}

							}
, 							{
								"box" : 								{
									"maxclass" : "outlet",
									"patching_rect" : [ 673.0, 247.0, 15.0, 15.0 ],
									"id" : "obj-13",
									"numinlets" : 1,
									"numoutlets" : 0,
									"comment" : ""
								}

							}
, 							{
								"box" : 								{
									"maxclass" : "outlet",
									"patching_rect" : [ 268.0, 238.0, 15.0, 15.0 ],
									"id" : "obj-14",
									"numinlets" : 1,
									"numoutlets" : 0,
									"comment" : ""
								}

							}
, 							{
								"box" : 								{
									"maxclass" : "outlet",
									"patching_rect" : [ 338.0, 240.0, 15.0, 15.0 ],
									"id" : "obj-15",
									"numinlets" : 1,
									"numoutlets" : 0,
									"comment" : ""
								}

							}
, 							{
								"box" : 								{
									"maxclass" : "outlet",
									"patching_rect" : [ 401.0, 238.0, 15.0, 15.0 ],
									"id" : "obj-16",
									"numinlets" : 1,
									"numoutlets" : 0,
									"comment" : ""
								}

							}
, 							{
								"box" : 								{
									"maxclass" : "outlet",
									"patching_rect" : [ 458.0, 242.0, 16.0, 16.0 ],
									"id" : "obj-17",
									"numinlets" : 1,
									"numoutlets" : 0,
									"comment" : ""
								}

							}
, 							{
								"box" : 								{
									"maxclass" : "outlet",
									"patching_rect" : [ 513.0, 246.0, 15.0, 15.0 ],
									"id" : "obj-18",
									"numinlets" : 1,
									"numoutlets" : 0,
									"comment" : ""
								}

							}
, 							{
								"box" : 								{
									"maxclass" : "outlet",
									"patching_rect" : [ 587.0, 245.0, 15.0, 15.0 ],
									"id" : "obj-19",
									"numinlets" : 1,
									"numoutlets" : 0,
									"comment" : ""
								}

							}
, 							{
								"box" : 								{
									"maxclass" : "outlet",
									"patching_rect" : [ 52.0, 252.0, 15.0, 15.0 ],
									"id" : "obj-20",
									"numinlets" : 1,
									"numoutlets" : 0,
									"comment" : ""
								}

							}
, 							{
								"box" : 								{
									"maxclass" : "inlet",
									"patching_rect" : [ 119.0, 68.0, 15.0, 15.0 ],
									"id" : "obj-21",
									"numinlets" : 0,
									"numoutlets" : 1,
									"outlettype" : [ "signal" ],
									"comment" : ""
								}

							}
, 							{
								"box" : 								{
									"maxclass" : "inlet",
									"patching_rect" : [ 523.0, 70.0, 15.0, 15.0 ],
									"id" : "obj-22",
									"numinlets" : 0,
									"numoutlets" : 1,
									"outlettype" : [ "signal" ],
									"comment" : ""
								}

							}
, 							{
								"box" : 								{
									"maxclass" : "inlet",
									"patching_rect" : [ 205.0, 70.0, 15.0, 15.0 ],
									"id" : "obj-23",
									"numinlets" : 0,
									"numoutlets" : 1,
									"outlettype" : [ "signal" ],
									"comment" : ""
								}

							}
, 							{
								"box" : 								{
									"maxclass" : "inlet",
									"patching_rect" : [ 280.0, 69.0, 15.0, 15.0 ],
									"id" : "obj-24",
									"numinlets" : 0,
									"numoutlets" : 1,
									"outlettype" : [ "signal" ],
									"comment" : ""
								}

							}
, 							{
								"box" : 								{
									"maxclass" : "inlet",
									"patching_rect" : [ 345.0, 67.0, 15.0, 15.0 ],
									"id" : "obj-25",
									"numinlets" : 0,
									"numoutlets" : 1,
									"outlettype" : [ "signal" ],
									"comment" : ""
								}

							}
, 							{
								"box" : 								{
									"maxclass" : "inlet",
									"patching_rect" : [ 406.0, 64.0, 15.0, 15.0 ],
									"id" : "obj-26",
									"numinlets" : 0,
									"numoutlets" : 1,
									"outlettype" : [ "signal" ],
									"comment" : ""
								}

							}
, 							{
								"box" : 								{
									"maxclass" : "inlet",
									"patching_rect" : [ 667.0, 59.0, 15.0, 15.0 ],
									"id" : "obj-27",
									"numinlets" : 0,
									"numoutlets" : 1,
									"outlettype" : [ "signal" ],
									"comment" : ""
								}

							}
, 							{
								"box" : 								{
									"maxclass" : "inlet",
									"patching_rect" : [ 592.0, 70.0, 15.0, 15.0 ],
									"id" : "obj-28",
									"numinlets" : 0,
									"numoutlets" : 1,
									"outlettype" : [ "signal" ],
									"comment" : ""
								}

							}
, 							{
								"box" : 								{
									"maxclass" : "inlet",
									"patching_rect" : [ 464.0, 74.0, 15.0, 15.0 ],
									"id" : "obj-29",
									"numinlets" : 0,
									"numoutlets" : 1,
									"outlettype" : [ "signal" ],
									"comment" : ""
								}

							}
, 							{
								"box" : 								{
									"maxclass" : "inlet",
									"patching_rect" : [ 42.0, 72.0, 15.0, 15.0 ],
									"id" : "obj-30",
									"numinlets" : 0,
									"numoutlets" : 1,
									"outlettype" : [ "signal" ],
									"comment" : ""
								}

							}
 ],
						"lines" : [ 							{
								"patchline" : 								{
									"source" : [ "obj-32", 0 ],
									"destination" : [ "obj-33", 0 ],
									"hidden" : 0,
									"midpoints" : [  ]
								}

							}
, 							{
								"patchline" : 								{
									"source" : [ "obj-35", 0 ],
									"destination" : [ "obj-32", 0 ],
									"hidden" : 0,
									"midpoints" : [  ]
								}

							}
, 							{
								"patchline" : 								{
									"source" : [ "obj-36", 0 ],
									"destination" : [ "obj-31", 0 ],
									"hidden" : 0,
									"midpoints" : [  ]
								}

							}
, 							{
								"patchline" : 								{
									"source" : [ "obj-31", 0 ],
									"destination" : [ "obj-34", 0 ],
									"hidden" : 0,
									"midpoints" : [  ]
								}

							}
, 							{
								"patchline" : 								{
									"source" : [ "obj-30", 0 ],
									"destination" : [ "obj-10", 0 ],
									"hidden" : 0,
									"midpoints" : [  ]
								}

							}
, 							{
								"patchline" : 								{
									"source" : [ "obj-10", 0 ],
									"destination" : [ "obj-20", 0 ],
									"hidden" : 0,
									"midpoints" : [  ]
								}

							}
, 							{
								"patchline" : 								{
									"source" : [ "obj-21", 0 ],
									"destination" : [ "obj-1", 0 ],
									"hidden" : 0,
									"midpoints" : [  ]
								}

							}
, 							{
								"patchline" : 								{
									"source" : [ "obj-1", 0 ],
									"destination" : [ "obj-11", 0 ],
									"hidden" : 0,
									"midpoints" : [  ]
								}

							}
, 							{
								"patchline" : 								{
									"source" : [ "obj-23", 0 ],
									"destination" : [ "obj-2", 0 ],
									"hidden" : 0,
									"midpoints" : [  ]
								}

							}
, 							{
								"patchline" : 								{
									"source" : [ "obj-2", 0 ],
									"destination" : [ "obj-12", 0 ],
									"hidden" : 0,
									"midpoints" : [  ]
								}

							}
, 							{
								"patchline" : 								{
									"source" : [ "obj-3", 0 ],
									"destination" : [ "obj-14", 0 ],
									"hidden" : 0,
									"midpoints" : [  ]
								}

							}
, 							{
								"patchline" : 								{
									"source" : [ "obj-24", 0 ],
									"destination" : [ "obj-3", 0 ],
									"hidden" : 0,
									"midpoints" : [  ]
								}

							}
, 							{
								"patchline" : 								{
									"source" : [ "obj-4", 0 ],
									"destination" : [ "obj-15", 0 ],
									"hidden" : 0,
									"midpoints" : [  ]
								}

							}
, 							{
								"patchline" : 								{
									"source" : [ "obj-25", 0 ],
									"destination" : [ "obj-4", 0 ],
									"hidden" : 0,
									"midpoints" : [  ]
								}

							}
, 							{
								"patchline" : 								{
									"source" : [ "obj-5", 0 ],
									"destination" : [ "obj-16", 0 ],
									"hidden" : 0,
									"midpoints" : [  ]
								}

							}
, 							{
								"patchline" : 								{
									"source" : [ "obj-26", 0 ],
									"destination" : [ "obj-5", 0 ],
									"hidden" : 0,
									"midpoints" : [  ]
								}

							}
, 							{
								"patchline" : 								{
									"source" : [ "obj-6", 0 ],
									"destination" : [ "obj-17", 0 ],
									"hidden" : 0,
									"midpoints" : [  ]
								}

							}
, 							{
								"patchline" : 								{
									"source" : [ "obj-29", 0 ],
									"destination" : [ "obj-6", 0 ],
									"hidden" : 0,
									"midpoints" : [  ]
								}

							}
, 							{
								"patchline" : 								{
									"source" : [ "obj-7", 0 ],
									"destination" : [ "obj-18", 0 ],
									"hidden" : 0,
									"midpoints" : [  ]
								}

							}
, 							{
								"patchline" : 								{
									"source" : [ "obj-22", 0 ],
									"destination" : [ "obj-7", 0 ],
									"hidden" : 0,
									"midpoints" : [  ]
								}

							}
, 							{
								"patchline" : 								{
									"source" : [ "obj-8", 0 ],
									"destination" : [ "obj-19", 0 ],
									"hidden" : 0,
									"midpoints" : [  ]
								}

							}
, 							{
								"patchline" : 								{
									"source" : [ "obj-28", 0 ],
									"destination" : [ "obj-8", 0 ],
									"hidden" : 0,
									"midpoints" : [  ]
								}

							}
, 							{
								"patchline" : 								{
									"source" : [ "obj-27", 0 ],
									"destination" : [ "obj-9", 0 ],
									"hidden" : 0,
									"midpoints" : [  ]
								}

							}
, 							{
								"patchline" : 								{
									"source" : [ "obj-9", 0 ],
									"destination" : [ "obj-13", 0 ],
									"hidden" : 0,
									"midpoints" : [  ]
								}

							}
 ]
					}
,
					"saved_object_attributes" : 					{
						"default_fontface" : 0,
						"fontname" : "Arial",
						"globalpatchername" : "",
						"default_fontname" : "Arial",
						"default_fontsize" : 12.0,
						"fontface" : 0,
						"fontsize" : 12.0
					}

				}

			}
, 			{
				"box" : 				{
					"maxclass" : "newobj",
					"text" : "matrix~ 1 12 smooth",
					"patching_rect" : [ 375.0, 620.0, 181.0, 20.0 ],
					"id" : "obj-51",
					"fontname" : "Arial",
					"numinlets" : 1,
					"numoutlets" : 13,
					"fontsize" : 12.0,
					"outlettype" : [ "signal", "signal", "signal", "signal", "signal", "signal", "signal", "signal", "signal", "signal", "signal", "signal", "list" ]
				}

			}
, 			{
				"box" : 				{
					"maxclass" : "flonum",
					"patching_rect" : [ 530.0, 476.0, 50.0, 20.0 ],
					"id" : "obj-29",
					"fontname" : "Arial",
					"numinlets" : 1,
					"numoutlets" : 2,
					"fontsize" : 12.0,
					"outlettype" : [ "float", "bang" ]
				}

			}
, 			{
				"box" : 				{
					"maxclass" : "newobj",
					"text" : "vbap 0 0",
					"patching_rect" : [ 375.0, 535.0, 73.0, 20.0 ],
					"id" : "obj-6",
					"fontname" : "Arial",
					"numinlets" : 5,
					"numoutlets" : 5,
					"fontsize" : 12.0,
					"outlettype" : [ "list", "int", "int", "int", "float" ]
				}

			}
, 			{
				"box" : 				{
					"maxclass" : "newobj",
					"text" : "select 0 1",
					"patching_rect" : [ 104.0, 325.0, 62.0, 20.0 ],
					"id" : "obj-20",
					"fontname" : "Arial",
					"numinlets" : 1,
					"numoutlets" : 3,
					"fontsize" : 12.0,
					"outlettype" : [ "bang", "bang", "" ]
				}

			}
, 			{
				"box" : 				{
					"maxclass" : "toggle",
					"patching_rect" : [ 170.0, 295.0, 20.0, 20.0 ],
					"id" : "obj-18",
					"numinlets" : 1,
					"numoutlets" : 1,
					"outlettype" : [ "int" ]
				}

			}
, 			{
				"box" : 				{
					"maxclass" : "newobj",
					"text" : "gate",
					"patching_rect" : [ 170.0, 324.0, 34.0, 20.0 ],
					"id" : "obj-16",
					"fontname" : "Arial",
					"numinlets" : 2,
					"numoutlets" : 1,
					"fontsize" : 12.0,
					"outlettype" : [ "" ]
				}

			}
, 			{
				"box" : 				{
					"maxclass" : "newobj",
					"text" : "t b i",
					"patching_rect" : [ 27.0, 301.0, 32.5, 20.0 ],
					"id" : "obj-15",
					"fontname" : "Arial",
					"numinlets" : 1,
					"numoutlets" : 2,
					"fontsize" : 12.0,
					"outlettype" : [ "bang", "int" ]
				}

			}
, 			{
				"box" : 				{
					"maxclass" : "message",
					"text" : "0",
					"patching_rect" : [ 104.0, 352.0, 32.5, 18.0 ],
					"id" : "obj-11",
					"fontname" : "Arial",
					"numinlets" : 2,
					"numoutlets" : 1,
					"fontsize" : 12.0,
					"outlettype" : [ "" ]
				}

			}
, 			{
				"box" : 				{
					"maxclass" : "message",
					"text" : "1",
					"patching_rect" : [ 170.0, 353.0, 32.5, 18.0 ],
					"id" : "obj-9",
					"fontname" : "Arial",
					"numinlets" : 2,
					"numoutlets" : 1,
					"fontsize" : 12.0,
					"outlettype" : [ "" ]
				}

			}
, 			{
				"box" : 				{
					"maxclass" : "message",
					"text" : "open $1",
					"patching_rect" : [ 41.0, 466.0, 54.0, 18.0 ],
					"id" : "obj-7",
					"fontname" : "Arial",
					"numinlets" : 2,
					"numoutlets" : 1,
					"fontsize" : 12.0,
					"outlettype" : [ "" ]
				}

			}
, 			{
				"box" : 				{
					"maxclass" : "newobj",
					"text" : "sfplay~ 1",
					"patching_rect" : [ 104.0, 434.0, 59.0, 20.0 ],
					"id" : "obj-2",
					"fontname" : "Arial",
					"numinlets" : 2,
					"numoutlets" : 2,
					"fontsize" : 12.0,
					"outlettype" : [ "signal", "bang" ],
					"save" : [ "#N", "sfplay~", "", 1, 120960, 0, "", ";" ]
				}

			}
, 			{
				"box" : 				{
					"maxclass" : "newobj",
					"text" : "sprintf /Users/mobi/Desktop/MoBI_DEMOS/MAZE_LSL/soundfiles/sound%i.wav",
					"patching_rect" : [ 511.0, 159.0, 437.0, 20.0 ],
					"id" : "obj-148",
					"fontname" : "Arial",
					"numinlets" : 1,
					"numoutlets" : 1,
					"fontsize" : 12.0,
					"outlettype" : [ "" ]
				}

			}
, 			{
				"box" : 				{
					"maxclass" : "number",
					"patching_rect" : [ 27.0, 248.0, 49.0, 20.0 ],
					"id" : "obj-60",
					"fontname" : "Arial",
					"numinlets" : 1,
					"numoutlets" : 2,
					"fontsize" : 12.0,
					"outlettype" : [ "int", "bang" ]
				}

			}
, 			{
				"box" : 				{
					"maxclass" : "number",
					"patching_rect" : [ 95.0, 248.0, 50.0, 20.0 ],
					"id" : "obj-58",
					"fontname" : "Arial",
					"numinlets" : 1,
					"numoutlets" : 2,
					"fontsize" : 12.0,
					"outlettype" : [ "int", "bang" ]
				}

			}
, 			{
				"box" : 				{
					"maxclass" : "number",
					"patching_rect" : [ 164.0, 248.0, 50.0, 20.0 ],
					"id" : "obj-55",
					"fontname" : "Arial",
					"numinlets" : 1,
					"numoutlets" : 2,
					"fontsize" : 12.0,
					"outlettype" : [ "int", "bang" ]
				}

			}
, 			{
				"box" : 				{
					"maxclass" : "comment",
					"text" : "LOOP()",
					"patching_rect" : [ 171.0, 269.0, 50.0, 20.0 ],
					"id" : "obj-26",
					"fontname" : "Arial",
					"numinlets" : 1,
					"numoutlets" : 0,
					"fontsize" : 12.0
				}

			}
, 			{
				"box" : 				{
					"maxclass" : "comment",
					"text" : "ON()",
					"patching_rect" : [ 111.0, 269.0, 43.0, 20.0 ],
					"id" : "obj-25",
					"fontname" : "Arial",
					"numinlets" : 1,
					"numoutlets" : 0,
					"fontsize" : 12.0
				}

			}
, 			{
				"box" : 				{
					"maxclass" : "comment",
					"text" : "FILE()",
					"patching_rect" : [ 36.0, 269.0, 44.0, 20.0 ],
					"id" : "obj-21",
					"fontname" : "Arial",
					"numinlets" : 1,
					"numoutlets" : 0,
					"fontsize" : 12.0
				}

			}
 ],
		"lines" : [ 			{
				"patchline" : 				{
					"source" : [ "obj-15", 1 ],
					"destination" : [ "obj-148", 0 ],
					"hidden" : 0,
					"midpoints" : [  ]
				}

			}
, 			{
				"patchline" : 				{
					"source" : [ "obj-148", 0 ],
					"destination" : [ "obj-7", 0 ],
					"hidden" : 0,
					"midpoints" : [  ]
				}

			}
, 			{
				"patchline" : 				{
					"source" : [ "obj-2", 0 ],
					"destination" : [ "obj-39", 0 ],
					"hidden" : 0,
					"midpoints" : [  ]
				}

			}
, 			{
				"patchline" : 				{
					"source" : [ "obj-4", 4 ],
					"destination" : [ "obj-17", 1 ],
					"hidden" : 0,
					"midpoints" : [  ]
				}

			}
, 			{
				"patchline" : 				{
					"source" : [ "obj-17", 0 ],
					"destination" : [ "obj-12", 0 ],
					"hidden" : 0,
					"midpoints" : [  ]
				}

			}
, 			{
				"patchline" : 				{
					"source" : [ "obj-19", 0 ],
					"destination" : [ "obj-17", 0 ],
					"hidden" : 0,
					"midpoints" : [  ]
				}

			}
, 			{
				"patchline" : 				{
					"source" : [ "obj-44", 0 ],
					"destination" : [ "obj-67", 0 ],
					"hidden" : 0,
					"midpoints" : [  ]
				}

			}
, 			{
				"patchline" : 				{
					"source" : [ "obj-1", 0 ],
					"destination" : [ "obj-66", 0 ],
					"hidden" : 0,
					"midpoints" : [  ]
				}

			}
, 			{
				"patchline" : 				{
					"source" : [ "obj-9", 0 ],
					"destination" : [ "obj-19", 0 ],
					"hidden" : 0,
					"midpoints" : [  ]
				}

			}
, 			{
				"patchline" : 				{
					"source" : [ "obj-5", 0 ],
					"destination" : [ "obj-8", 0 ],
					"hidden" : 0,
					"midpoints" : [  ]
				}

			}
, 			{
				"patchline" : 				{
					"source" : [ "obj-1", 0 ],
					"destination" : [ "obj-22", 0 ],
					"hidden" : 0,
					"midpoints" : [  ]
				}

			}
, 			{
				"patchline" : 				{
					"source" : [ "obj-40", 0 ],
					"destination" : [ "obj-88", 0 ],
					"hidden" : 0,
					"midpoints" : [ 242.5, 430.0, 328.5, 430.0 ]
				}

			}
, 			{
				"patchline" : 				{
					"source" : [ "obj-35", 0 ],
					"destination" : [ "obj-88", 0 ],
					"hidden" : 0,
					"midpoints" : [ 184.5, 430.5, 328.5, 430.5 ]
				}

			}
, 			{
				"patchline" : 				{
					"source" : [ "obj-7", 0 ],
					"destination" : [ "obj-2", 0 ],
					"hidden" : 0,
					"midpoints" : [ 50.5, 492.5, 113.5, 492.5 ]
				}

			}
, 			{
				"patchline" : 				{
					"source" : [ "obj-9", 0 ],
					"destination" : [ "obj-2", 0 ],
					"hidden" : 0,
					"midpoints" : [ 179.5, 375.5, 113.5, 375.5 ]
				}

			}
, 			{
				"patchline" : 				{
					"source" : [ "obj-11", 0 ],
					"destination" : [ "obj-2", 0 ],
					"hidden" : 0,
					"midpoints" : [ 113.5, 375.5, 113.5, 375.5 ]
				}

			}
, 			{
				"patchline" : 				{
					"source" : [ "obj-2", 0 ],
					"destination" : [ "obj-51", 0 ],
					"hidden" : 0,
					"midpoints" : [ 113.5, 609.0, 384.5, 609.0 ]
				}

			}
, 			{
				"patchline" : 				{
					"source" : [ "obj-35", 0 ],
					"destination" : [ "obj-110", 0 ],
					"hidden" : 0,
					"midpoints" : [  ]
				}

			}
, 			{
				"patchline" : 				{
					"source" : [ "obj-110", 0 ],
					"destination" : [ "obj-23", 0 ],
					"hidden" : 0,
					"midpoints" : [  ]
				}

			}
, 			{
				"patchline" : 				{
					"source" : [ "obj-23", 0 ],
					"destination" : [ "obj-6", 0 ],
					"hidden" : 0,
					"midpoints" : [ 184.5, 526.5, 384.5, 526.5 ]
				}

			}
, 			{
				"patchline" : 				{
					"source" : [ "obj-79", 0 ],
					"destination" : [ "obj-6", 0 ],
					"hidden" : 0,
					"midpoints" : [ 433.5, 526.5, 384.5, 526.5 ]
				}

			}
, 			{
				"patchline" : 				{
					"source" : [ "obj-79", 1 ],
					"destination" : [ "obj-6", 3 ],
					"hidden" : 0,
					"midpoints" : [ 441.5, 526.5, 425.0, 526.5 ]
				}

			}
, 			{
				"patchline" : 				{
					"source" : [ "obj-27", 0 ],
					"destination" : [ "obj-6", 0 ],
					"hidden" : 0,
					"midpoints" : [ 384.5, 524.5, 384.5, 524.5 ]
				}

			}
, 			{
				"patchline" : 				{
					"source" : [ "obj-27", 1 ],
					"destination" : [ "obj-6", 2 ],
					"hidden" : 0,
					"midpoints" : [ 392.5, 526.5, 411.5, 526.5 ]
				}

			}
, 			{
				"patchline" : 				{
					"source" : [ "obj-75", 0 ],
					"destination" : [ "obj-6", 0 ],
					"hidden" : 0,
					"midpoints" : [ 329.5, 526.5, 384.5, 526.5 ]
				}

			}
, 			{
				"patchline" : 				{
					"source" : [ "obj-75", 1 ],
					"destination" : [ "obj-6", 1 ],
					"hidden" : 0,
					"midpoints" : [ 337.5, 526.5, 398.0, 526.5 ]
				}

			}
, 			{
				"patchline" : 				{
					"source" : [ "obj-88", 0 ],
					"destination" : [ "obj-75", 0 ],
					"hidden" : 1,
					"midpoints" : [  ]
				}

			}
, 			{
				"patchline" : 				{
					"source" : [ "obj-87", 0 ],
					"destination" : [ "obj-27", 0 ],
					"hidden" : 1,
					"midpoints" : [  ]
				}

			}
, 			{
				"patchline" : 				{
					"source" : [ "obj-28", 0 ],
					"destination" : [ "obj-79", 0 ],
					"hidden" : 1,
					"midpoints" : [  ]
				}

			}
, 			{
				"patchline" : 				{
					"source" : [ "obj-6", 3 ],
					"destination" : [ "obj-71", 0 ],
					"hidden" : 0,
					"midpoints" : [  ]
				}

			}
, 			{
				"patchline" : 				{
					"source" : [ "obj-6", 2 ],
					"destination" : [ "obj-65", 0 ],
					"hidden" : 0,
					"midpoints" : [  ]
				}

			}
, 			{
				"patchline" : 				{
					"source" : [ "obj-6", 1 ],
					"destination" : [ "obj-59", 0 ],
					"hidden" : 0,
					"midpoints" : [  ]
				}

			}
, 			{
				"patchline" : 				{
					"source" : [ "obj-51", 11 ],
					"destination" : [ "obj-54", 11 ],
					"hidden" : 0,
					"midpoints" : [  ]
				}

			}
, 			{
				"patchline" : 				{
					"source" : [ "obj-51", 10 ],
					"destination" : [ "obj-54", 10 ],
					"hidden" : 0,
					"midpoints" : [  ]
				}

			}
, 			{
				"patchline" : 				{
					"source" : [ "obj-51", 9 ],
					"destination" : [ "obj-54", 9 ],
					"hidden" : 0,
					"midpoints" : [  ]
				}

			}
, 			{
				"patchline" : 				{
					"source" : [ "obj-51", 8 ],
					"destination" : [ "obj-54", 8 ],
					"hidden" : 0,
					"midpoints" : [  ]
				}

			}
, 			{
				"patchline" : 				{
					"source" : [ "obj-51", 7 ],
					"destination" : [ "obj-54", 7 ],
					"hidden" : 0,
					"midpoints" : [  ]
				}

			}
, 			{
				"patchline" : 				{
					"source" : [ "obj-51", 6 ],
					"destination" : [ "obj-54", 6 ],
					"hidden" : 0,
					"midpoints" : [  ]
				}

			}
, 			{
				"patchline" : 				{
					"source" : [ "obj-51", 5 ],
					"destination" : [ "obj-54", 5 ],
					"hidden" : 0,
					"midpoints" : [  ]
				}

			}
, 			{
				"patchline" : 				{
					"source" : [ "obj-51", 4 ],
					"destination" : [ "obj-54", 4 ],
					"hidden" : 0,
					"midpoints" : [  ]
				}

			}
, 			{
				"patchline" : 				{
					"source" : [ "obj-51", 3 ],
					"destination" : [ "obj-54", 3 ],
					"hidden" : 0,
					"midpoints" : [  ]
				}

			}
, 			{
				"patchline" : 				{
					"source" : [ "obj-51", 2 ],
					"destination" : [ "obj-54", 2 ],
					"hidden" : 0,
					"midpoints" : [  ]
				}

			}
, 			{
				"patchline" : 				{
					"source" : [ "obj-51", 1 ],
					"destination" : [ "obj-54", 1 ],
					"hidden" : 0,
					"midpoints" : [  ]
				}

			}
, 			{
				"patchline" : 				{
					"source" : [ "obj-51", 0 ],
					"destination" : [ "obj-54", 0 ],
					"hidden" : 0,
					"midpoints" : [  ]
				}

			}
, 			{
				"patchline" : 				{
					"source" : [ "obj-6", 0 ],
					"destination" : [ "obj-51", 0 ],
					"hidden" : 0,
					"midpoints" : [  ]
				}

			}
, 			{
				"patchline" : 				{
					"source" : [ "obj-29", 0 ],
					"destination" : [ "obj-6", 4 ],
					"hidden" : 0,
					"midpoints" : [ 539.5, 525.0, 438.5, 525.0 ]
				}

			}
, 			{
				"patchline" : 				{
					"source" : [ "obj-16", 0 ],
					"destination" : [ "obj-9", 0 ],
					"hidden" : 0,
					"midpoints" : [  ]
				}

			}
, 			{
				"patchline" : 				{
					"source" : [ "obj-18", 0 ],
					"destination" : [ "obj-16", 0 ],
					"hidden" : 0,
					"midpoints" : [  ]
				}

			}
, 			{
				"patchline" : 				{
					"source" : [ "obj-55", 0 ],
					"destination" : [ "obj-18", 0 ],
					"hidden" : 0,
					"midpoints" : [  ]
				}

			}
, 			{
				"patchline" : 				{
					"source" : [ "obj-60", 0 ],
					"destination" : [ "obj-15", 0 ],
					"hidden" : 0,
					"midpoints" : [  ]
				}

			}
, 			{
				"patchline" : 				{
					"source" : [ "obj-10", 0 ],
					"destination" : [ "obj-3", 0 ],
					"hidden" : 0,
					"midpoints" : [  ]
				}

			}
, 			{
				"patchline" : 				{
					"source" : [ "obj-37", 1 ],
					"destination" : [ "obj-13", 0 ],
					"hidden" : 0,
					"midpoints" : [  ]
				}

			}
, 			{
				"patchline" : 				{
					"source" : [ "obj-13", 0 ],
					"destination" : [ "obj-14", 0 ],
					"hidden" : 0,
					"midpoints" : [  ]
				}

			}
, 			{
				"patchline" : 				{
					"source" : [ "obj-14", 0 ],
					"destination" : [ "obj-10", 0 ],
					"hidden" : 0,
					"midpoints" : [  ]
				}

			}
, 			{
				"patchline" : 				{
					"source" : [ "obj-61", 0 ],
					"destination" : [ "obj-37", 0 ],
					"hidden" : 0,
					"midpoints" : [  ]
				}

			}
, 			{
				"patchline" : 				{
					"source" : [ "obj-3", 0 ],
					"destination" : [ "obj-29", 0 ],
					"hidden" : 0,
					"midpoints" : [ 441.5, 432.5, 539.5, 432.5 ]
				}

			}
, 			{
				"patchline" : 				{
					"source" : [ "obj-2", 1 ],
					"destination" : [ "obj-16", 1 ],
					"hidden" : 0,
					"midpoints" : [ 153.5, 385.0, 212.0, 385.0, 212.0, 314.0, 194.5, 314.0 ]
				}

			}
, 			{
				"patchline" : 				{
					"source" : [ "obj-2", 1 ],
					"destination" : [ "obj-32", 0 ],
					"hidden" : 0,
					"midpoints" : [  ]
				}

			}
, 			{
				"patchline" : 				{
					"source" : [ "obj-50", 0 ],
					"destination" : [ "obj-52", 0 ],
					"hidden" : 0,
					"midpoints" : [  ]
				}

			}
, 			{
				"patchline" : 				{
					"source" : [ "obj-52", 0 ],
					"destination" : [ "obj-64", 1 ],
					"hidden" : 0,
					"midpoints" : [  ]
				}

			}
, 			{
				"patchline" : 				{
					"source" : [ "obj-66", 0 ],
					"destination" : [ "obj-64", 0 ],
					"hidden" : 0,
					"midpoints" : [  ]
				}

			}
, 			{
				"patchline" : 				{
					"source" : [ "obj-54", 0 ],
					"destination" : [ "obj-70", 0 ],
					"hidden" : 0,
					"midpoints" : [  ]
				}

			}
, 			{
				"patchline" : 				{
					"source" : [ "obj-54", 1 ],
					"destination" : [ "obj-72", 0 ],
					"hidden" : 0,
					"midpoints" : [  ]
				}

			}
, 			{
				"patchline" : 				{
					"source" : [ "obj-54", 2 ],
					"destination" : [ "obj-73", 0 ],
					"hidden" : 0,
					"midpoints" : [  ]
				}

			}
, 			{
				"patchline" : 				{
					"source" : [ "obj-54", 3 ],
					"destination" : [ "obj-74", 0 ],
					"hidden" : 0,
					"midpoints" : [  ]
				}

			}
, 			{
				"patchline" : 				{
					"source" : [ "obj-54", 4 ],
					"destination" : [ "obj-80", 0 ],
					"hidden" : 0,
					"midpoints" : [  ]
				}

			}
, 			{
				"patchline" : 				{
					"source" : [ "obj-54", 5 ],
					"destination" : [ "obj-78", 0 ],
					"hidden" : 0,
					"midpoints" : [  ]
				}

			}
, 			{
				"patchline" : 				{
					"source" : [ "obj-54", 6 ],
					"destination" : [ "obj-77", 0 ],
					"hidden" : 0,
					"midpoints" : [  ]
				}

			}
, 			{
				"patchline" : 				{
					"source" : [ "obj-54", 7 ],
					"destination" : [ "obj-76", 0 ],
					"hidden" : 0,
					"midpoints" : [  ]
				}

			}
, 			{
				"patchline" : 				{
					"source" : [ "obj-54", 8 ],
					"destination" : [ "obj-84", 0 ],
					"hidden" : 0,
					"midpoints" : [  ]
				}

			}
, 			{
				"patchline" : 				{
					"source" : [ "obj-54", 9 ],
					"destination" : [ "obj-83", 0 ],
					"hidden" : 0,
					"midpoints" : [  ]
				}

			}
, 			{
				"patchline" : 				{
					"source" : [ "obj-54", 10 ],
					"destination" : [ "obj-82", 0 ],
					"hidden" : 0,
					"midpoints" : [  ]
				}

			}
, 			{
				"patchline" : 				{
					"source" : [ "obj-54", 11 ],
					"destination" : [ "obj-81", 0 ],
					"hidden" : 0,
					"midpoints" : [  ]
				}

			}
, 			{
				"patchline" : 				{
					"source" : [ "obj-52", 0 ],
					"destination" : [ "obj-60", 0 ],
					"hidden" : 0,
					"midpoints" : [  ]
				}

			}
, 			{
				"patchline" : 				{
					"source" : [ "obj-110", 0 ],
					"destination" : [ "obj-88", 0 ],
					"hidden" : 0,
					"midpoints" : [  ]
				}

			}
, 			{
				"patchline" : 				{
					"source" : [ "obj-58", 0 ],
					"destination" : [ "obj-20", 0 ],
					"hidden" : 0,
					"midpoints" : [  ]
				}

			}
, 			{
				"patchline" : 				{
					"source" : [ "obj-20", 0 ],
					"destination" : [ "obj-11", 0 ],
					"hidden" : 0,
					"midpoints" : [  ]
				}

			}
, 			{
				"patchline" : 				{
					"source" : [ "obj-20", 1 ],
					"destination" : [ "obj-9", 0 ],
					"hidden" : 0,
					"midpoints" : [  ]
				}

			}
, 			{
				"patchline" : 				{
					"source" : [ "obj-24", 0 ],
					"destination" : [ "obj-52", 0 ],
					"hidden" : 0,
					"midpoints" : [  ]
				}

			}
, 			{
				"patchline" : 				{
					"source" : [ "obj-43", 0 ],
					"destination" : [ "obj-46", 0 ],
					"hidden" : 0,
					"midpoints" : [  ]
				}

			}
, 			{
				"patchline" : 				{
					"source" : [ "obj-46", 0 ],
					"destination" : [ "obj-67", 1 ],
					"hidden" : 0,
					"midpoints" : [  ]
				}

			}
, 			{
				"patchline" : 				{
					"source" : [ "obj-66", 1 ],
					"destination" : [ "obj-43", 0 ],
					"hidden" : 0,
					"midpoints" : [  ]
				}

			}
, 			{
				"patchline" : 				{
					"source" : [ "obj-49", 1 ],
					"destination" : [ "obj-44", 0 ],
					"hidden" : 0,
					"midpoints" : [  ]
				}

			}
, 			{
				"patchline" : 				{
					"source" : [ "obj-49", 0 ],
					"destination" : [ "obj-46", 0 ],
					"hidden" : 0,
					"midpoints" : [  ]
				}

			}
, 			{
				"patchline" : 				{
					"source" : [ "obj-64", 0 ],
					"destination" : [ "obj-49", 0 ],
					"hidden" : 0,
					"midpoints" : [  ]
				}

			}
, 			{
				"patchline" : 				{
					"source" : [ "obj-4", 3 ],
					"destination" : [ "obj-61", 0 ],
					"hidden" : 0,
					"midpoints" : [  ]
				}

			}
, 			{
				"patchline" : 				{
					"source" : [ "obj-4", 2 ],
					"destination" : [ "obj-40", 0 ],
					"hidden" : 0,
					"midpoints" : [  ]
				}

			}
, 			{
				"patchline" : 				{
					"source" : [ "obj-4", 1 ],
					"destination" : [ "obj-55", 0 ],
					"hidden" : 0,
					"midpoints" : [  ]
				}

			}
, 			{
				"patchline" : 				{
					"source" : [ "obj-4", 0 ],
					"destination" : [ "obj-58", 0 ],
					"hidden" : 0,
					"midpoints" : [  ]
				}

			}
, 			{
				"patchline" : 				{
					"source" : [ "obj-67", 0 ],
					"destination" : [ "obj-4", 0 ],
					"hidden" : 0,
					"midpoints" : [  ]
				}

			}
, 			{
				"patchline" : 				{
					"source" : [ "obj-4", 4 ],
					"destination" : [ "obj-31", 1 ],
					"hidden" : 0,
					"midpoints" : [  ]
				}

			}
, 			{
				"patchline" : 				{
					"source" : [ "obj-7", 0 ],
					"destination" : [ "obj-42", 1 ],
					"hidden" : 0,
					"midpoints" : [  ]
				}

			}
 ]
	}

}
